<svg width="44" height="44" viewBox="0 0 44 44" fill="none" xmlns="http://www.w3.org/2000/svg">
<g filter="url(#filter0_d_155_8682)">
<path d="M22 -8.74228e-07C27.3043 -1.10609e-06 32.3914 2.10713 36.1421 5.85786C39.8929 9.60859 42 14.6957 42 20C42 25.3043 39.8929 30.3914 36.1421 34.1421C32.3914 37.8929 27.3043 40 22 40C16.6957 40 11.6086 37.8929 7.85786 34.1421C4.10714 30.3914 2 25.3043 2 20C2 14.6957 4.10714 9.60859 7.85786 5.85786C11.6086 2.10714 16.6957 -6.42368e-07 22 -8.74228e-07ZM13.25 18.75C12.9185 18.75 12.6005 18.8817 12.3661 19.1161C12.1317 19.3505 12 19.6685 12 20C12 20.3315 12.1317 20.6495 12.3661 20.8839C12.6005 21.1183 12.9185 21.25 13.25 21.25L27.7325 21.25L22.365 26.615C22.1303 26.8497 21.9984 27.1681 21.9984 27.5C21.9984 27.8319 22.1303 28.1503 22.365 28.385C22.5997 28.6197 22.9181 28.7516 23.25 28.7516C23.5819 28.7516 23.9003 28.6197 24.135 28.385L31.635 20.885C31.7514 20.7689 31.8438 20.6309 31.9068 20.4791C31.9698 20.3272 32.0022 20.1644 32.0022 20C32.0022 19.8356 31.9698 19.6728 31.9068 19.5209C31.8438 19.3691 31.7514 19.2311 31.635 19.115L24.135 11.615C23.9003 11.3803 23.5819 11.2484 23.25 11.2484C22.9181 11.2484 22.5997 11.3803 22.365 11.615C22.1303 11.8497 21.9984 12.1681 21.9984 12.5C21.9984 12.8319 22.1303 13.1503 22.365 13.385L27.7325 18.75L13.25 18.75Z" fill="white"/>
</g>
<defs>
<filter id="filter0_d_155_8682" x="0" y="0" width="44" height="44" filterUnits="userSpaceOnUse" color-interpolation-filters="sRGB">
<feFlood flood-opacity="0" result="BackgroundImageFix"/>
<feColorMatrix in="SourceAlpha" type="matrix" values="0 0 0 0 0 0 0 0 0 0 0 0 0 0 0 0 0 0 127 0" result="hardAlpha"/>
<feOffset dy="2"/>
<feGaussianBlur stdDeviation="1"/>
<feComposite in2="hardAlpha" operator="out"/>
<feColorMatrix type="matrix" values="0 0 0 0 0 0 0 0 0 0 0 0 0 0 0 0 0 0 0.25 0"/>
<feBlend mode="normal" in2="BackgroundImageFix" result="effect1_dropShadow_155_8682"/>
<feBlend mode="normal" in="SourceGraphic" in2="effect1_dropShadow_155_8682" result="shape"/>
</filter>
</defs>
</svg>
