<svg width="192" height="192" viewBox="0 0 192 192" fill="none" xmlns="http://www.w3.org/2000/svg">
<path fill-rule="evenodd" clip-rule="evenodd" d="M96.0003 182.25C143.634 182.25 182.25 143.634 182.25 95.9998C182.25 48.3659 143.634 9.74984 96.0003 9.74984C48.3664 9.74984 9.75033 48.3659 9.75033 95.9998C9.75033 143.634 48.3664 182.25 96.0003 182.25ZM96.0003 191.833C148.929 191.833 191.834 148.929 191.834 95.9998C191.834 43.0711 148.929 0.166504 96.0003 0.166504C43.0716 0.166504 0.166992 43.0711 0.166992 95.9998C0.166992 148.929 43.0716 191.833 96.0003 191.833Z" fill="#0F993E"/>
<path d="M38.5 151.727C38.5 146.777 42.1992 142.594 47.125 142.048C84.0927 137.956 108.075 138.325 144.961 142.139C146.803 142.332 148.549 143.058 149.985 144.227C151.422 145.396 152.486 146.959 153.049 148.723C153.613 150.488 153.65 152.378 153.156 154.163C152.663 155.948 151.66 157.551 150.27 158.776C106.738 196.721 81.8598 196.198 41.5667 158.814C39.6021 156.993 38.5 154.406 38.5 151.732V151.727Z" fill="#0F993E"/>
<path fill-rule="evenodd" clip-rule="evenodd" d="M144.468 146.902C107.874 143.116 84.2371 142.762 47.648 146.811C46.4436 146.951 45.3332 147.531 44.5296 148.439C43.7259 149.347 43.2854 150.519 43.2923 151.732C43.2923 153.102 43.8626 154.401 44.8257 155.302C64.7973 173.826 79.9294 182.197 94.7213 182.25C109.566 182.303 125.513 173.999 147.123 155.167C147.81 154.556 148.304 153.759 148.546 152.872C148.787 151.986 148.767 151.048 148.485 150.173C148.204 149.298 147.675 148.523 146.962 147.943C146.249 147.364 145.382 147.003 144.468 146.907V146.902ZM46.5986 137.285C83.9544 133.15 108.287 133.524 145.46 137.371C148.231 137.66 150.858 138.751 153.018 140.51C155.179 142.269 156.78 144.62 157.625 147.275C158.47 149.93 158.523 152.773 157.777 155.458C157.031 158.142 155.518 160.551 153.424 162.389C131.502 181.498 113.246 191.905 94.6925 191.833C76.0865 191.766 58.6353 181.181 38.3138 162.326C36.8588 160.971 35.699 159.33 34.9067 157.507C34.1144 155.683 33.7066 153.715 33.709 151.727C33.702 148.155 35.0133 144.705 37.3917 142.039C39.7701 139.374 43.0484 137.679 46.5986 137.28V137.285Z" fill="#0F993E"/>
<path d="M134.334 76.8333C134.334 87 130.295 96.7502 123.106 103.939C115.917 111.128 106.167 115.167 96.0003 115.167C85.8337 115.167 76.0835 111.128 68.8946 103.939C61.7057 96.7502 57.667 87 57.667 76.8333C57.667 66.6667 61.7057 56.9165 68.8946 49.7276C76.0835 42.5387 85.8337 38.5 96.0003 38.5C106.167 38.5 115.917 42.5387 123.106 49.7276C130.295 56.9165 134.334 66.6667 134.334 76.8333Z" fill="#0F993E"/>
<path fill-rule="evenodd" clip-rule="evenodd" d="M96.0003 105.583C103.625 105.583 110.938 102.554 116.33 97.1627C121.721 91.771 124.75 84.4583 124.75 76.8333C124.75 69.2084 121.721 61.8957 116.33 56.504C110.938 51.1123 103.625 48.0833 96.0003 48.0833C88.3754 48.0833 81.0627 51.1123 75.671 56.504C70.2793 61.8957 67.2503 69.2084 67.2503 76.8333C67.2503 84.4583 70.2793 91.771 75.671 97.1627C81.0627 102.554 88.3754 105.583 96.0003 105.583ZM96.0003 115.167C106.167 115.167 115.917 111.128 123.106 103.939C130.295 96.7502 134.334 87 134.334 76.8333C134.334 66.6667 130.295 56.9165 123.106 49.7276C115.917 42.5387 106.167 38.5 96.0003 38.5C85.8337 38.5 76.0835 42.5387 68.8946 49.7276C61.7057 56.9165 57.667 66.6667 57.667 76.8333C57.667 87 61.7057 96.7502 68.8946 103.939C76.0835 111.128 85.8337 115.167 96.0003 115.167Z" fill="#0F993E"/>
</svg>
