<svg width="26" height="25" viewBox="0 0 26 25" fill="none" xmlns="http://www.w3.org/2000/svg">
<g clip-path="url(#clip0_155_104)">
<path d="M25.6731 11.7386L13.9237 0.850027C13.677 0.621349 13.3487 0.495361 12.9997 0.495361C12.6505 0.495361 12.3222 0.621236 12.0756 0.850027L0.326044 11.7386C-0.0675089 12.1032 -0.0215199 12.4167 0.0408181 12.5655C0.103274 12.7143 0.289582 12.9733 0.836039 12.9733H2.15902V22.6508C2.15902 23.658 3.06186 24.5089 4.0842 24.5089H10.0395V17.9494H15.8028V24.5089H21.9149C22.9405 24.5089 23.8009 23.6406 23.8009 22.6508V12.9733H25.163C25.7095 12.9733 25.8957 12.7143 25.9583 12.5655C26.0206 12.4167 26.0667 12.1033 25.6731 11.7386Z" fill="white"/>
</g>
<defs>
<clipPath id="clip0_155_104">
<rect width="26" height="25" fill="white"/>
</clipPath>
</defs>
</svg>
