<svg width="26" height="26" viewBox="0 0 26 26" fill="none" xmlns="http://www.w3.org/2000/svg">
<g clip-path="url(#clip0_155_176)">
<path fill-rule="evenodd" clip-rule="evenodd" d="M4.60478e-05 2.43947V23.5674C4.60478e-05 24.2576 0.434092 24.897 0.796396 25.257C1.96279 26.4159 3.17803 25.9833 4.45379 25.5333L8.49499 24.169C8.96776 24.0137 9.16157 23.8895 9.50868 23.6153C10.1532 23.1061 10.4339 22.2808 10.4339 21.4059C10.4339 18.8939 10.614 19.0156 10.0045 19.0252C9.29074 19.0365 8.93833 19.0605 8.2502 18.8335C6.23132 18.1674 5.18991 16.5347 5.18991 14.1652C5.18991 12.7433 5.04803 10.7275 5.56888 9.57276C6.21686 8.13611 7.7159 6.96982 9.29728 6.97723C9.51444 6.97825 9.73215 6.97682 9.94917 6.98036C10.6096 6.99127 10.4339 7.2087 10.4339 4.60093C10.4339 2.01042 8.44419 1.80354 6.31831 1.09548L4.05428 0.332468C3.14755 0.0259829 2.44085 -0.195769 1.49457 0.258919C0.681875 0.6494 0 1.55661 0 2.43947H4.60478e-05Z" fill="#FEFEFE"/>
<path fill-rule="evenodd" clip-rule="evenodd" d="M13.8398 7.73496V8.65354H9.46084C8.12564 8.65354 6.91992 9.85868 6.91992 11.1932V14.8676C6.91992 15.1921 7.07966 15.6738 7.19308 15.8915L7.74551 16.6362C8.21548 17.0379 8.82552 17.3533 9.67708 17.3533H13.8398V18.2178C13.8398 19.7404 15.2754 20.9277 16.8126 20.7595C17.6601 20.6667 18.1157 20.2136 18.6667 19.8003C19.2162 19.3879 19.7351 18.999 20.2731 18.5961C21.3473 17.7916 22.3971 17.0033 23.4859 16.1876L25.0931 14.9843C26.1258 14.156 26.324 12.5519 25.4414 11.3769C25.102 10.9251 22.3573 8.95961 21.7946 8.53769C21.1986 8.09074 18.0518 5.62713 17.4402 5.37909C16.4277 4.96854 15.3954 5.28934 14.6874 5.93435L14.3668 6.26237C14.0697 6.60844 13.8398 7.22196 13.8398 7.73496Z" fill="white"/>
</g>
<defs>
<clipPath id="clip0_155_176">
<rect width="26" height="26" fill="white"/>
</clipPath>
</defs>
</svg>
