<svg width="58" height="57" viewBox="0 0 58 57" fill="none" xmlns="http://www.w3.org/2000/svg">
<g clip-path="url(#clip0_155_252)">
<path fill-rule="evenodd" clip-rule="evenodd" d="M0.598734 5.34524V51.6394C0.598734 53.1518 1.54979 54.5528 2.34365 55.3417C4.89938 57.8811 7.56216 56.9332 10.3575 55.9472L19.2124 52.9578C20.2483 52.6175 20.6729 52.3453 21.4335 51.7444C22.8457 50.6288 23.4607 48.8205 23.4607 46.9035C23.4607 41.3992 23.8554 41.6658 22.52 41.687C20.956 41.7118 20.1838 41.7643 18.676 41.2668C14.2523 39.8074 11.9705 36.2298 11.9705 31.038C11.9705 27.9223 11.6596 23.5055 12.8008 20.9753C14.2207 17.8274 17.5053 15.2719 20.9703 15.2881C21.4461 15.2903 21.9232 15.2872 22.3987 15.295C23.8458 15.3189 23.4607 15.7953 23.4607 10.0813C23.4607 4.40512 19.1011 3.95181 14.4429 2.40035L9.48213 0.728484C7.49536 0.0569323 5.94689 -0.428957 3.87345 0.567327C2.09272 1.42293 0.598633 3.41076 0.598633 5.34524H0.598734Z" fill="#2BA54C"/>
<path fill-rule="evenodd" clip-rule="evenodd" d="M30.9232 16.9485V18.9613H21.3283C18.4026 18.9613 15.7607 21.6019 15.7607 24.5261V32.5772C15.7607 33.2881 16.1108 34.3437 16.3593 34.8206L17.5697 36.4523C18.5995 37.3327 19.9362 38.0236 21.8021 38.0236H30.9232V39.9179C30.9232 43.2541 34.0688 45.8558 37.4371 45.4871C39.294 45.2838 40.2922 44.291 41.4995 43.3853C42.7037 42.4818 43.8405 41.6297 45.0195 40.7468C47.3733 38.9841 49.6735 37.2568 52.0591 35.4695L55.5808 32.8328C57.8436 31.0179 58.2778 27.5031 56.3439 24.9286C55.6003 23.9385 49.5862 19.6319 48.3534 18.7074C47.0473 17.7281 40.1523 12.3299 38.8121 11.7865C36.5937 10.8869 34.3318 11.5898 32.7803 13.0031L32.0778 13.7219C31.4269 14.4801 30.9232 15.8245 30.9232 16.9485Z" fill="#E21D24"/>
</g>
<defs>
<clipPath id="clip0_155_252">
<rect width="56.9697" height="56.9697" fill="white" transform="translate(0.598633)"/>
</clipPath>
</defs>
</svg>
