<svg width="58" height="54" viewBox="0 0 58 54" fill="none" xmlns="http://www.w3.org/2000/svg">
<g clip-path="url(#clip0_155_203)">
<path d="M7.17383 52.6183L10.0646 50.1142C11.8834 48.5281 14.6889 48.5069 16.5346 50.0647L20.1953 53.1331C20.8059 53.6466 21.7313 53.6449 22.3388 53.1278L25.9462 50.0706C27.7769 48.5122 30.5667 48.5122 32.3974 50.0706L36.0048 53.1278C36.6123 53.6443 37.5376 53.6466 38.1483 53.1331L41.809 50.0641C43.6547 48.5063 46.4608 48.5281 48.279 50.1142L51.1698 52.6183V0H7.17383V52.6183ZM18.443 17.4556H39.0423C39.9288 17.4556 40.6473 18.1311 40.6473 18.9633C40.6473 19.7961 39.9288 20.471 39.0423 20.471H18.443C17.5565 20.471 16.8381 19.7961 16.8381 18.9633C16.8381 18.1311 17.5565 17.4556 18.443 17.4556ZM18.443 27.9376H39.0423C39.9288 27.9376 40.6473 28.6125 40.6473 29.4453C40.6473 30.278 39.9288 30.953 39.0423 30.953H18.443C17.5565 30.953 16.8381 30.278 16.8381 29.4453C16.8381 28.6125 17.5565 27.9376 18.443 27.9376Z" fill="#2DA44C"/>
</g>
<defs>
<clipPath id="clip0_155_203">
<rect width="56.9697" height="53.517" fill="white" transform="translate(0.598633)"/>
</clipPath>
</defs>
</svg>
