<svg width="26" height="25" viewBox="0 0 26 25" fill="none" xmlns="http://www.w3.org/2000/svg">
<g clip-path="url(#clip0_155_111)">
<path d="M3.00049 24.0141L4.3198 22.8713C5.14985 22.1474 6.43025 22.1377 7.2726 22.8487L8.94327 24.249C9.22196 24.4834 9.64427 24.4826 9.92153 24.2466L11.5679 22.8514C12.4034 22.1402 13.6766 22.1402 14.5121 22.8514L16.1584 24.2466C16.4357 24.4823 16.858 24.4834 17.1367 24.249L18.8074 22.8484C19.6497 22.1375 20.9304 22.1474 21.7602 22.8713L23.0795 24.0141V0H3.00049V24.0141ZM8.14356 7.96645H17.5447C17.9493 7.96645 18.2772 8.27474 18.2772 8.65453C18.2772 9.03459 17.9493 9.34261 17.5447 9.34261H8.14356C7.73898 9.34261 7.41108 9.03459 7.41108 8.65453C7.41108 8.27474 7.73898 7.96645 8.14356 7.96645ZM8.14356 12.7502H17.5447C17.9493 12.7502 18.2772 13.0583 18.2772 13.4383C18.2772 13.8184 17.9493 14.1264 17.5447 14.1264H8.14356C7.73898 14.1264 7.41108 13.8184 7.41108 13.4383C7.41108 13.0583 7.73898 12.7502 8.14356 12.7502Z" fill="white"/>
</g>
<defs>
<clipPath id="clip0_155_111">
<rect width="26" height="24.4242" fill="white"/>
</clipPath>
</defs>
</svg>
