<svg width="26" height="26" viewBox="0 0 26 26" fill="none" xmlns="http://www.w3.org/2000/svg">
<g clip-path="url(#clip0_155_164)">
<path d="M25.2215 15.8492L22.8317 13.9804C22.862 13.6923 22.888 13.3554 22.888 12.9989C22.888 12.6425 22.8631 12.3056 22.8317 12.0174L25.2237 10.1476C25.6679 9.79662 25.7892 9.17368 25.5065 8.6548L23.0213 4.355C22.7558 3.86968 22.1741 3.6205 21.5837 3.83825L18.7638 4.97032C18.2232 4.58032 17.6566 4.251 17.0705 3.98775L16.6415 0.996684C16.5711 0.429 16.0771 0 15.4932 0H10.5099C9.92595 0 9.43307 0.429 9.3637 0.988L8.93363 3.98993C8.36595 4.24562 7.80807 4.57062 7.24363 4.9725L4.41613 3.83718C3.88633 3.63243 3.25258 3.86207 2.98933 4.34525L0.500951 8.65043C0.207385 9.14662 0.328701 9.79118 0.782635 10.1509L3.17245 12.0196C3.13452 12.3847 3.11613 12.7021 3.11613 13.0001C3.11613 13.298 3.13457 13.6154 3.17245 13.9816L0.780451 15.8514C0.336268 16.2034 0.216018 16.8264 0.498768 17.3442L2.98395 21.6439C3.24938 22.1282 3.8257 22.3795 4.42152 22.1607L7.24145 21.0286C7.78095 21.4176 8.34752 21.7469 8.93363 22.0112L9.36263 25.0012C9.43302 25.571 9.92595 26 10.511 26H15.4943C16.0782 26 16.5722 25.571 16.6415 25.012L17.0716 22.0112C17.6393 21.7544 18.1961 21.4305 18.7616 21.0275L21.5891 22.1628C21.7256 22.2159 21.8675 22.243 22.0138 22.243C22.4341 22.243 22.8208 22.0133 23.0158 21.6558L25.5118 17.3333C25.7892 16.8263 25.6678 16.2034 25.2215 15.8492ZM13.0015 17.3333C10.6117 17.3333 8.6682 15.3898 8.6682 13C8.6682 10.6102 10.6117 8.66668 13.0015 8.66668C15.3913 8.66668 17.3348 10.6102 17.3348 13C17.3348 15.3898 15.3913 17.3333 13.0015 17.3333Z" fill="white"/>
</g>
<defs>
<clipPath id="clip0_155_164">
<rect width="26" height="26" fill="white"/>
</clipPath>
</defs>
</svg>
