<svg width="58" height="57" viewBox="0 0 58 57" fill="none" xmlns="http://www.w3.org/2000/svg">
<g clip-path="url(#clip0_155_261)">
<path d="M56.0825 34.7278L50.8461 30.6331C50.9125 30.0017 50.9695 29.2635 50.9695 28.4825C50.9695 27.7015 50.9148 26.9634 50.8461 26.3319L56.0873 22.2349C57.0605 21.4658 57.3264 20.1008 56.7068 18.9639L51.2614 9.54242C50.6798 8.47903 49.4051 7.93303 48.1115 8.41015L41.9326 10.8907C40.7482 10.0361 39.5066 9.31455 38.2225 8.73773L37.2825 2.18388C37.1282 0.94 36.0457 0 34.7664 0H23.8472C22.5677 0 21.4877 0.94 21.3358 2.16485L20.3934 8.74251C19.1495 9.30275 17.9271 10.0149 16.6904 10.8955L10.4949 8.40781C9.33406 7.95918 7.94542 8.46234 7.36861 9.52106L1.91621 18.9543C1.27296 20.0415 1.53878 21.4539 2.53341 22.242L7.76984 26.3367C7.68672 27.1366 7.64645 27.8321 7.64645 28.485C7.64645 29.1378 7.68684 29.8332 7.76984 30.6356L2.52863 34.7326C1.55536 35.504 1.29188 36.869 1.91142 38.0036L7.35681 47.4249C7.93842 48.486 9.20121 49.0367 10.5067 48.5572L16.6856 46.0767C17.8677 46.9289 19.1091 47.6505 20.3934 48.2296L21.3334 54.7811C21.4876 56.0297 22.5677 56.9697 23.8495 56.9697H34.7687C36.0482 56.9697 37.1306 56.0297 37.2825 54.8048L38.2248 48.2296C39.4687 47.6671 40.6888 46.9573 41.9278 46.0742L48.1233 48.5619C48.4224 48.6782 48.7334 48.7376 49.0538 48.7376C49.9748 48.7376 50.8222 48.2343 51.2495 47.451L56.7186 37.9798C57.3264 36.8689 57.0604 35.504 56.0825 34.7278ZM29.3067 37.9798C24.0703 37.9798 19.8118 33.7213 19.8118 28.4848C19.8118 23.2484 24.0703 18.9899 29.3067 18.9899C34.5432 18.9899 38.8016 23.2484 38.8016 28.4848C38.8016 33.7213 34.5432 37.9798 29.3067 37.9798Z" fill="#2AA64C"/>
</g>
<defs>
<clipPath id="clip0_155_261">
<rect width="56.9697" height="56.9697" fill="white" transform="translate(0.818359)"/>
</clipPath>
</defs>
</svg>
