<svg width="56" height="57" viewBox="0 0 56 57" fill="none" xmlns="http://www.w3.org/2000/svg">
<g clip-path="url(#clip0_155_189)">
<path d="M1.8654 47.4769C6.85401 47.4769 9.1207 44.6966 11.7573 43.8252C10.8644 45.5512 10.3985 47.4782 10.401 49.4349C10.401 54.3299 14.1947 56.2879 18.9367 56.2879C23.6787 56.2879 27.4723 54.3299 27.4723 49.4349C27.4749 47.4782 27.009 45.5512 26.1161 43.8252C28.7906 44.7063 30.9909 47.4769 36.008 47.4769C36.5318 47.4769 36.9564 47.0386 36.9564 46.4979C36.9564 45.9572 36.5318 45.5189 36.008 45.5189C31.266 45.5189 29.4925 42.6504 26.2394 41.8085C26.5655 41.3807 27.0133 41.0691 27.5198 40.9176C28.5097 40.5121 28.9938 39.355 28.601 38.3331C28.2081 37.3112 27.0871 36.8115 26.0972 37.217C20.53 39.1163 17.3718 39.175 11.7762 37.217C10.7863 36.825 9.6759 37.3356 9.29615 38.3575C8.91641 39.3794 9.41108 40.5256 10.401 40.9176C10.9087 41.0667 11.6814 41.8085 11.6814 41.8085C11.6814 41.8085 6.60742 45.5189 1.8654 45.5189C1.34161 45.5189 0.916992 45.9572 0.916992 46.4979C0.916992 47.0386 1.34161 47.4769 1.8654 47.4769ZM20.8335 41.6029H22.7303C23.2541 41.6029 23.6787 42.0412 23.6787 42.5819C23.6787 43.1226 23.2541 43.5609 22.7303 43.5609H20.8335C20.3097 43.5609 19.8851 43.1226 19.8851 42.5819C19.8851 42.0412 20.3097 41.6029 20.8335 41.6029ZM15.1431 41.6029H17.0399C17.5637 41.6029 17.9883 42.0412 17.9883 42.5819C17.9883 43.1226 17.5637 43.5609 17.0399 43.5609H15.1431C14.6193 43.5609 14.1947 43.1226 14.1947 42.5819C14.1947 42.0412 14.6193 41.6029 15.1431 41.6029Z" fill="#2AA64C"/>
<path d="M28.6941 30.1365L27.7457 31.1155C27.3738 31.4994 27.3738 32.1218 27.7457 32.5057C28.1176 32.8896 28.7205 32.8896 29.0924 32.5057L30.0408 31.5267C30.4127 31.1428 30.4127 30.5204 30.0408 30.1365C29.6689 29.7527 29.066 29.7527 28.6941 30.1365Z" fill="#5FED13"/>
<path d="M31.2658 35.7355H33.1626C33.6864 35.7355 34.111 35.2972 34.111 34.7565C34.111 34.2158 33.6864 33.7775 33.1626 33.7775H31.2658C30.742 33.7775 30.3174 34.2158 30.3174 34.7565C30.3174 35.2972 30.742 35.7355 31.2658 35.7355Z" fill="#5FED13"/>
<path d="M7.8307 31.5261L8.77911 32.5051C9.151 32.889 9.75395 32.889 10.1258 32.5051C10.4977 32.1212 10.4977 31.4988 10.1258 31.1149L9.17744 30.1359C8.93687 29.8876 8.58622 29.7906 8.2576 29.8815C7.92897 29.9724 7.67228 30.2373 7.58423 30.5766C7.49617 30.9158 7.59013 31.2778 7.8307 31.5261Z" fill="#5FED13"/>
<path d="M4.71208 33.7775C4.18829 33.7775 3.76367 34.2158 3.76367 34.7565C3.76367 35.2972 4.18829 35.7355 4.71208 35.7355H6.60889C7.13268 35.7355 7.55729 35.2972 7.55729 34.7565C7.55729 34.2158 7.13268 33.7775 6.60889 33.7775H4.71208Z" fill="#5FED13"/>
<path d="M11.3502 21.4137C13.6453 15.8824 13.6074 15.6768 14.423 15.0992C14.6971 14.897 14.9456 14.6602 15.1628 14.3943C15.2576 11.2517 17.088 7.33569 18.596 4.66302L17.989 4.80987C16.7694 5.10503 15.7124 5.88636 15.0489 6.98325C11.7485 12.4461 11.6726 12.4265 11.4545 13.3174L9.45334 20.748C9.36922 21.0483 9.42913 21.3721 9.61457 21.6193C9.8312 21.9145 10.1827 22.0697 10.5392 22.0275C10.8956 21.9852 11.2039 21.7519 11.3502 21.4137Z" fill="#5FED13"/>
<path d="M18.9369 33.7696C20.1081 33.7656 21.2118 33.2036 21.9275 32.2466C22.6432 31.2897 22.8906 30.0452 22.5978 28.8746C20.4449 30.0983 17.2393 30.3333 15.3615 28.6396C15.1906 29.0188 15.1156 29.4364 15.1433 29.8536C15.1433 32.0163 16.8418 33.7696 18.9369 33.7696Z" fill="#2AA64C"/>
<path d="M55.9239 5.25576C55.829 5.23618 27.32 0.488037 24.6265 0.488037C23.8298 0.488037 22.2555 2.26003 20.8329 4.65858C19.4103 7.05712 17.0392 11.5116 17.0392 14.194V20.9491C18.0093 20.2845 19.0458 19.7298 20.131 19.2946C20.4419 18.5327 20.6586 17.7334 20.776 16.9156C20.187 16.6876 19.6531 16.3301 19.2111 15.8681C18.8392 15.4842 18.8392 14.8618 19.2111 14.4779C19.583 14.0941 20.1859 14.0941 20.5578 14.4779C20.8318 14.7811 21.1787 15.004 21.5631 15.1241C22.1835 14.5892 22.5808 13.8286 22.6728 12.9997C22.0838 12.7716 21.5499 12.4141 21.1079 11.9521C20.8673 11.7038 20.7734 11.3418 20.8614 11.0026C20.9495 10.6634 21.2062 10.3984 21.5348 10.3075C21.8634 10.2166 22.2141 10.3136 22.4546 10.5619C22.7542 10.9059 23.1477 11.1483 23.5832 11.257C24.9297 10.8389 26.3108 10.5505 27.7088 10.3955C29.0263 10.271 30.2613 11.0731 30.7227 12.3531C31.184 13.633 30.7574 15.0734 29.6815 15.8681C27.6709 17.2779 23.4599 20.2051 21.1458 21.0177C19.5271 21.6054 18.04 22.5244 16.7737 23.7197C16.3317 24.2967 16.0912 25.0107 16.0908 25.7462C16.083 25.9962 16.1216 26.2455 16.2046 26.4805C16.8685 28.272 19.5905 28.135 21.2691 27.3616C21.7035 27.1643 22.1222 26.9319 22.521 26.6665C25.8974 24.405 28.8848 20.068 34.1105 20.068C41.2236 20.068 43.1963 17.2779 48.9531 17.9534C49.9774 18.0709 53.7615 18.6191 55.9239 18.9324V5.25576Z" fill="#2AA64C"/>
</g>
<defs>
<clipPath id="clip0_155_189">
<rect width="55.0075" height="56.782" fill="white" transform="translate(0.916992)"/>
</clipPath>
</defs>
</svg>
