<svg width="26" height="26" viewBox="0 0 26 26" fill="none" xmlns="http://www.w3.org/2000/svg">
<g clip-path="url(#clip0_155_115)">
<path d="M0.448276 21.7393C2.80621 21.7393 3.87759 20.4662 5.12379 20.0672C4.70176 20.8576 4.48156 21.7399 4.48276 22.6359C4.48276 24.8772 6.27586 25.7738 8.51724 25.7738C10.7586 25.7738 12.5517 24.8772 12.5517 22.6359C12.5529 21.7399 12.3327 20.8576 11.9107 20.0672C13.1748 20.4707 14.2148 21.7393 16.5862 21.7393C16.8338 21.7393 17.0345 21.5386 17.0345 21.291C17.0345 21.0435 16.8338 20.8428 16.5862 20.8428C14.3448 20.8428 13.5066 19.5293 11.969 19.1438C12.1231 18.9479 12.3347 18.8052 12.5741 18.7359C13.0421 18.5502 13.2709 18.0203 13.0852 17.5524C12.8995 17.0845 12.3696 16.8557 11.9017 17.0414C9.27034 17.911 7.77759 17.9379 5.13276 17.0414C4.66484 16.8619 4.14001 17.0957 3.96052 17.5636C3.78102 18.0315 4.01484 18.5564 4.48276 18.7359C4.72268 18.8041 4.93465 18.947 5.08793 19.1438C3.54586 19.5248 2.68966 20.8428 0.448276 20.8428C0.2007 20.8428 0 21.0435 0 21.291C0 21.5386 0.2007 21.7393 0.448276 21.7393ZM9.41379 19.0497H10.3103C10.5579 19.0497 10.7586 19.2504 10.7586 19.4979C10.7586 19.7455 10.5579 19.9462 10.3103 19.9462H9.41379C9.16622 19.9462 8.96552 19.7455 8.96552 19.4979C8.96552 19.2504 9.16622 19.0497 9.41379 19.0497ZM6.72414 19.0497H7.62069C7.86827 19.0497 8.06897 19.2504 8.06897 19.4979C8.06897 19.7455 7.86827 19.9462 7.62069 19.9462H6.72414C6.47656 19.9462 6.27586 19.7455 6.27586 19.4979C6.27586 19.2504 6.47656 19.0497 6.72414 19.0497Z" fill="white"/>
<path d="M13.1294 13.7993L12.6811 14.2476C12.5054 14.4234 12.5054 14.7083 12.6811 14.8841C12.8569 15.0599 13.1419 15.0599 13.3177 14.8841L13.766 14.4359C13.9417 14.2601 13.9417 13.9751 13.766 13.7993C13.5902 13.6235 13.3052 13.6235 13.1294 13.7993Z" fill="white"/>
<path d="M14.3448 16.363H15.2413C15.4889 16.363 15.6896 16.1623 15.6896 15.9148C15.6896 15.6672 15.4889 15.4665 15.2413 15.4665H14.3448C14.0972 15.4665 13.8965 15.6672 13.8965 15.9148C13.8965 16.1623 14.0972 16.363 14.3448 16.363Z" fill="white"/>
<path d="M3.26808 14.4356L3.71635 14.8839C3.89213 15.0596 4.17713 15.0596 4.35291 14.8839C4.52868 14.7081 4.52868 14.4231 4.35291 14.2473L3.90463 13.799C3.79092 13.6853 3.62518 13.6409 3.46985 13.6825C3.31452 13.7241 3.1932 13.8455 3.15158 14.0008C3.10996 14.1561 3.15437 14.3219 3.26808 14.4356Z" fill="white"/>
<path d="M1.79349 15.4665C1.54591 15.4665 1.34521 15.6672 1.34521 15.9148C1.34521 16.1623 1.54591 16.363 1.79349 16.363H2.69004C2.93762 16.363 3.13832 16.1623 3.13832 15.9148C3.13832 15.6672 2.93762 15.4665 2.69004 15.4665H1.79349Z" fill="white"/>
<path d="M4.93177 9.80519C6.0166 7.27243 5.99867 7.1783 6.38419 6.91381C6.51374 6.82123 6.63121 6.7128 6.73385 6.59106C6.77868 5.15209 7.64385 3.35899 8.35661 2.13519L8.06971 2.20243C7.49323 2.33758 6.99364 2.69535 6.68005 3.19761C5.12005 5.69899 5.08419 5.69002 4.98108 6.09795L4.03522 9.50037C3.99546 9.63789 4.02377 9.78614 4.11143 9.89933C4.21382 10.0345 4.37998 10.1056 4.54845 10.0862C4.71692 10.0669 4.86266 9.96004 4.93177 9.80519Z" fill="white"/>
<path d="M8.51744 15.4628C9.071 15.461 9.5927 15.2037 9.93098 14.7655C10.2693 14.3273 10.3862 13.7575 10.2478 13.2215C9.2302 13.7818 7.71503 13.8894 6.82744 13.1139C6.7467 13.2875 6.71123 13.4787 6.72434 13.6697C6.72434 14.66 7.52714 15.4628 8.51744 15.4628Z" fill="white"/>
<path d="M25.9994 2.40661C25.9546 2.39765 12.4794 0.223511 11.2063 0.223511C10.8298 0.223511 10.0857 1.03489 9.41324 2.13317C8.74082 3.23144 7.62013 5.2711 7.62013 6.49937V9.59248C8.07862 9.28817 8.56858 9.03417 9.08151 8.83489C9.22844 8.48602 9.33085 8.12004 9.38634 7.74558C9.10797 7.64114 8.8556 7.47748 8.64669 7.26593C8.47091 7.09015 8.47091 6.80515 8.64669 6.62937C8.82246 6.4536 9.10746 6.4536 9.28324 6.62937C9.41275 6.76819 9.57669 6.87027 9.75841 6.92524C10.0516 6.68032 10.2394 6.33203 10.2829 5.95248C10.0045 5.84804 9.75215 5.68438 9.54324 5.47282C9.42953 5.35911 9.38512 5.19338 9.42674 5.03805C9.46836 4.88272 9.58969 4.76139 9.74502 4.71977C9.90034 4.67815 10.0661 4.72256 10.1798 4.83627C10.3214 4.99379 10.5074 5.10474 10.7132 5.15455C11.3497 4.96311 12.0024 4.83105 12.6632 4.76006C13.286 4.70304 13.8697 5.07032 14.0878 5.65641C14.3058 6.24249 14.1042 6.90201 13.5957 7.26593C12.6453 7.91144 10.655 9.25179 9.56117 9.62386C8.79606 9.89297 8.09317 10.3138 7.49462 10.8611C7.28572 11.1253 7.17201 11.4522 7.17186 11.789C7.16815 11.9035 7.18641 12.0176 7.22565 12.1252C7.53944 12.9456 8.82599 12.8828 9.61944 12.5287C9.82477 12.4384 10.0226 12.332 10.2112 12.2104C11.807 11.1749 13.2191 9.18903 15.6891 9.18903C19.0512 9.18903 19.9836 7.91144 22.7046 8.22075C23.1888 8.27455 24.9774 8.52558 25.9994 8.66903V2.40661Z" fill="white"/>
</g>
<defs>
<clipPath id="clip0_155_115">
<rect width="26" height="26" fill="white"/>
</clipPath>
</defs>
</svg>
